PathFileType	4	(X/Y/Z)	34_2_60_p1_0-536_filt_butterworth.trc
DataRate	CameraRate	NumFrames	NumMarkers	Units	OrigDataRate	OrigDataStartFrame	OrigNumFrames
59.0	59.0	6	27	m	59.0	335	536
Frame#	Time	RHip			RKnee			RAnkle			RBigToe			RSmallToe			RHeel			LHip			LKnee			LAnkle			LBigToe			LSmallToe			LHeel			Neck			Head			Nose			RShoulder			RElbow			RWrist			RThumb			RIndex			RPinky			LShoulder			LElbow			LWrist			LThumb			LIndex			LPinky			
		X1	Y1	Z1	X2	Y2	Z2	X3	Y3	Z3	X4	Y4	Z4	X5	Y5	Z5	X6	Y6	Z6	X7	Y7	Z7	X8	Y8	Z8	X9	Y9	Z9	X10	Y10	Z10	X11	Y11	Z11	X12	Y12	Z12	X13	Y13	Z13	X14	Y14	Z14	X15	Y15	Z15	X16	Y16	Z16	X17	Y17	Z17	X18	Y18	Z18	X19	Y19	Z19	X20	Y20	Z20	X21	Y21	Z21	X22	Y22	Z22	X23	Y23	Z23	X24	Y24	Z24	X25	Y25	Z25	X26	Y26	Z26	X27	Y27	Z27	
335	5.677966101694915	0.4049306423166856	0.7095856104603653	0.6663983917265756	0.4056500231134544	0.2565359340257461	0.7191919571918917	0.38253568136228383	-0.13183001266046973	0.7414190759036954	0.3331867037706814	-0.11705378108105238	0.5415404672021012	0.40022258106383996	-0.13387636804809716	0.5649158841559205	0.34821871367202295	-0.22404092425063277	0.8344263958517687	0.16864954134270535	0.6978259118132296	0.7025235023749969	0.16278447973429275	0.25451716097856514	0.7303034596742652	0.18339493587578345	-0.13745946347469684	0.7371596628214817	0.19798794441889722	-0.12173258814121515	0.5591546634531652	0.1413523224113212	-0.12978673466354063	0.5849149490842875	0.1910580294952423	-0.20101070408002839	0.7808217750466419	0.29784000955682916	1.2186682004174323	0.7105133427736342	0.2501876501979041	1.4883291730538937	0.6276254645559343	0.30090218203368124	1.3371603783321186	0.5520383119791509	0.4594836234660489	1.1796026475372632	0.7066386641980191	0.5475285554282009	0.9431745154241338	0.7280930398669183	0.4631209200657631	0.8520936850623277	0.5495466349304272	0.3513032376194213	0.7973395479888393	0.47381239755030113	0.38811781984710847	0.8041240911390731	0.42448766104412616	0.42233962665469243	0.7664107377204934	0.4724243605561167	0.12833042272917203	1.1800222636520408	0.7253390145540528	0.049971019571987	0.9422495252304287	0.7583787694186271	0.1413109907162253	0.8431280230135808	0.5596812875824767	0.21840499756469364	0.8379907949680976	0.4795610267351302	0.20062872703638923	0.8180206000499785	0.4541265704631622	0.15601822707114057	0.7651254422635673	0.4906713983551516	
336	5.694915254237288	0.4043146758172465	0.7101713415738885	0.6665255211453803	0.4058204903668647	0.256922735489025	0.7186538156507509	0.38269086390063145	-0.1336124134949086	0.7444929755939336	0.3338992853931792	-0.11743784500449228	0.5421044307927826	0.40030396034242455	-0.13453606095322304	0.5679062014268822	0.34838194911511255	-0.22390202148736618	0.8339858871715718	0.16898429858917652	0.6989659176907963	0.7018745264838384	0.16285655447043135	0.25522763969263695	0.7304862275900641	0.18340630265824548	-0.13746658590113303	0.73718519419315	0.1965494175538745	-0.12015530289325695	0.5567577188084182	0.14154818395207935	-0.12908221898310437	0.5845628213669858	0.19123789302054403	-0.20039610202470842	0.7808995632341253	0.29956532954548665	1.2198920830445115	0.7079860624743292	0.25356535156266896	1.4879139488501696	0.6277586860531333	0.3023745190028774	1.3365794031612463	0.5520892141771958	0.46095549049987516	1.1780856267723032	0.70562968207399	0.5476691827131677	0.9430522832879544	0.7279044802696469	0.46338520742515255	0.8505051266450945	0.5497024769597294	0.3524207164564133	0.7957652163647942	0.4727697970771443	0.3891207906007841	0.8026305443573631	0.4260006883178952	0.422393426382065	0.7638685307883705	0.47221771754110897	0.12862791087566341	1.1812599545490616	0.7273632030375574	0.049927041178635626	0.9434053318865893	0.7583681220766867	0.1413160625387068	0.8453375434245383	0.5597101910811448	0.2197811678704787	0.8378643263275298	0.4798892591106185	0.2016737901545559	0.8176087008798145	0.4554828061500768	0.15691226069147338	0.763430754922448	0.49452230575745637	
337	5.711864406779661	0.4037148580303217	0.710827105943311	0.66665721285899	0.4059937674448389	0.2572992088427446	0.7180789857029186	0.38273622456957096	-0.1351861749450068	0.7473847309572698	0.33479061395256043	-0.11787533321243467	0.5427100078575651	0.4003662465978467	-0.1349713353246385	0.570141766288826	0.3484995690239166	-0.22372511366827172	0.8337624235376537	0.16942765775227336	0.7002686416635336	0.7010361176748856	0.1629181472934714	0.25595113452033436	0.7306632861875363	0.18342450312069167	-0.1374862496314346	0.7372017184966415	0.19507913902220175	-0.11829170865925842	0.553929649592134	0.14169402757851116	-0.12862834084314412	0.5841616055495198	0.19136046951759939	-0.1996850422201255	0.7809009929210372	0.3011216758081169	1.220967310256754	0.7054568159506489	0.2572300130974292	1.4878775551644794	0.6280043594584823	0.303700468036709	1.3360173362283354	0.5521253199643804	0.4623886026985195	1.176079603364691	0.7051307307619403	0.5478528665752604	0.9424371535315663	0.7275977104419971	0.4637037642712122	0.8487168237740093	0.5499569320634172	0.3539911622188521	0.7943168930934108	0.47071305715245093	0.3903340706759648	0.8016607967230471	0.4261406938601208	0.42238277381987416	0.7614012461287081	0.4719608528848927	0.12922137175404383	1.1825389130568964	0.7295698322851741	0.04932582518400783	0.944809415013056	0.7580414854086965	0.14128073794709378	0.8477538175263429	0.559788318485051	0.22121308786596203	0.8376506379817696	0.48029072690028685	0.20298010466170624	0.8168995037570262	0.45738886198017903	0.1577521299821777	0.7620856066307142	0.4982588574699275	
338	5.728813559322034	0.4031585294115112	0.711517743723226	0.666785607740044	0.40612858900058485	0.2576072985428074	0.7176050155563685	0.3826433160342416	-0.13646955683575587	0.7499603638121477	0.335725211863262	-0.11828568683092039	0.5432673559447478	0.40039073947803405	-0.13518205985098047	0.5714133660899321	0.3485311191371681	-0.2236015314724567	0.8337509313679048	0.16996620203498874	0.7017051856922853	0.7000165227105165	0.1629485270731339	0.25668166008556137	0.7308365110102755	0.18346000108992913	-0.13751889239959444	0.7371350749065101	0.19376451395603927	-0.11636739281022418	0.5510330315892998	0.14177340086771167	-0.1284542903580047	0.5837954057162743	0.19149682576624405	-0.19905236446207858	0.7809041119056646	0.30233913830180587	1.2217022362881769	0.703465546949277	0.26119725750216327	1.4881660996279986	0.6288657429134966	0.3049783933434156	1.3356789327073406	0.5514541445170037	0.4636956517012662	1.1736689716805915	0.7055525827659228	0.5476960383296587	0.9413471052983754	0.7271458730640391	0.4642870946095209	0.8469383920747219	0.5503413734984212	0.3560071784961242	0.7933865039912442	0.4677184318185258	0.39170642307473447	0.8013471582329023	0.4248872406672608	0.4223343264820582	0.7591880531587064	0.47173236298644555	0.13012673431244	1.1838559191839495	0.7311437926557559	0.04837365123817011	0.946425448472919	0.7575651647055995	0.14120549692418907	0.8501020482438705	0.5599278721565006	0.22243883885487545	0.8374320858184234	0.4807007335246255	0.204407512669238	0.8159682305545768	0.45951385282744583	0.15840827646436154	0.7614748062346205	0.5013962865189582	
339	5.745762711864407	0.4027003745110887	0.712136730784791	0.6669926236887482	0.40617152575583065	0.2577806186090674	0.7174298920939156	0.3824449828595322	-0.1374591373368111	0.7521651079628153	0.3365751510020187	-0.11859190647229759	0.5437584642264608	0.4004492694635393	-0.13529201927520376	0.5718371218546366	0.3485097700037838	-0.22355465123872162	0.8338264636284177	0.17053842253008827	0.7032040896175309	0.6989009792984449	0.1629410630976242	0.25734919909253506	0.7310045922920996	0.18353157803330022	-0.13753698320155178	0.7369139979597125	0.1927580077013236	-0.11462394924655746	0.548453908758365	0.14179523765669716	-0.1284757790570472	0.5835544954181178	0.19169780335647787	-0.1986103479306965	0.7809699249965409	0.3031543126760161	1.2219496162925336	0.7026904851882306	0.2654080979756617	1.4886589418137968	0.6306203666932148	0.30622649933004426	1.3357269217378362	0.5498515102386426	0.46477778208522214	1.171050118639182	0.7069631086396171	0.5468812890589752	0.9399090170296196	0.7267905051242202	0.4651288335698108	0.8454034519190042	0.550833672492089	0.3583891809594789	0.7932987460365506	0.46356424271629026	0.39306826383963117	0.8016053518342888	0.4227216354765385	0.42228288771304784	0.757310988245224	0.47163556841993204	0.13124606806879288	1.185110039341663	0.7315879232354827	0.047354020751342284	0.9482145564404123	0.7572075038927439	0.14109461494046532	0.8521347460371181	0.5601338270722818	0.22329342154564574	0.8373761151155862	0.48102434339883826	0.2057508670982523	0.8151255563510449	0.46150473656324675	0.1588144349857477	0.7617275482315975	0.5035771257644709	
340	5.762711864406779	0.4023858371565237	0.7125989010776436	0.6673863214819219	0.4061033809506145	0.25780599858632935	0.7176366728613618	0.3821830616891044	-0.13819063869005282	0.7539555241867386	0.33726114784654826	-0.11876946513084391	0.5441899751290584	0.400677300809977	-0.1356232818625118	0.5720936863624991	0.3484803399474236	-0.22356100094469739	0.8338845997399067	0.1710460631816301	0.7046581318564696	0.6978637436254221	0.16290154180243974	0.2578669121071991	0.7311683321591	0.18363649192946588	-0.13747449087447244	0.7365653323220426	0.1921420583877982	-0.11329218072280703	0.5465495380194101	0.14178292999797015	-0.1285542646563979	0.5834801442101105	0.19195396989959118	-0.19837156436280629	0.7811039076389709	0.30363400228921694	1.2217283524672335	0.7034660824157197	0.26964952043899704	1.4891436427584752	0.6334465940074281	0.3074164973754942	1.336228166893228	0.5475683961392359	0.4656245720770579	1.1684056477306508	0.7090666057466961	0.5453991952807917	0.9382797478893561	0.7268989825906427	0.46607838862220213	0.8443337564245544	0.5513703470350588	0.3610135137799342	0.7942457863139514	0.45800195925478443	0.3943168365333042	0.8022540193813459	0.42029972623045153	0.42226373825199603	0.7558217221601188	0.4717186292255039	0.1324764149825023	1.1861615021249614	0.7310615095795998	0.04648707280392844	0.9500877027452141	0.7571985847622189	0.14096684958561756	0.8536429300192303	0.5603865901210208	0.2237810075347446	0.8376254008480154	0.481178645651576	0.20677846398467037	0.814789610255434	0.46306029489150907	0.15898734004634946	0.7626292763914262	0.50480001941143	
